<svg height="512pt" viewBox="0 -13 512.00946 512" width="512pt" xmlns="http://www.w3.org/2000/svg"><path d="m452.246094 251.722656c0 106.039063-85.960938 192-192 192-4.265625 0-8.617188-.171875-12.800782-.511718-100.851562-6.667969-179.242187-90.417969-179.242187-191.488282 0-101.074218 78.390625-184.820312 179.242187-191.488281 4.183594-.339844 8.535157-.511719 12.800782-.511719 50.921875 0 99.757812 20.226563 135.765625 56.234375 36.007812 36.007813 56.234375 84.84375 56.234375 135.765625zm0 0" fill="#a4c2f7"/><path d="m426.648438 251.722656c0-105.757812-80.230469-191.488281-179.203126-191.488281-98.96875 0-179.199218 85.730469-179.199218 191.488281 0 105.753906 80.230468 191.488282 179.199218 191.488282 98.972657 0 179.203126-85.734376 179.203126-191.488282zm0 0" fill="#e3e7f2"/><path d="m12.625 53.636719c-6.015625 7.578125-5.3125 18.480469 1.632812 25.21875 6.589844 7.78125 10.289063 17.601562 10.46875 27.800781 1.613282 12.59375-5.222656 29.617188-4.265624 42.195312 1.296874 17.425782 11.707031 29.441407 22.09375 43.078126 21.03125 27.585937 42.605468 19.429687 57.214843 7.3125 5.917969-5.425782 13.84375-8.109376 21.839844-7.402344 8 .707031 15.328125 4.742187 20.203125 11.121094l.203125.214843c.585937.800781 1.21875 1.5625 1.894531 2.285157 4.027344 4.101562 9.519532 6.425781 15.265625 6.46875 5.742188.042968 11.269531-2.207032 15.355469-6.246094 7.070312-6.671875 5.015625-12.933594.78125-21.210938-8.210938-14.304687-20.765625-25.617187-35.839844-32.308594-3.027344-1.683593-5.179687-4.59375-5.910156-7.980468-.726562-3.386719.042969-6.921875 2.113281-9.699219 36.78125-54.28125 32.984375-99.3125 32.019531-104.03125-1.027343-4.753906-3.972656-8.875-8.140624-11.382813-4.167969-2.507812-9.1875-3.179687-13.867188-1.863281-9.933594 2.496094-16.257812 12.226563-14.507812 22.316407.28125 1.972656 4.265624 32.425781-31.648438 78.925781 19.667969-65.316407-4.601562-100.957031-5.734375-102.539063-2.917969-3.953125-7.308594-6.570312-12.175781-7.25-4.867188-.683594-9.804688.625-13.699219 3.625-8.351563 5.808594-10.628906 17.175782-5.164063 25.753906 3.246094 5.824219 5.332032 12.21875 6.144532 18.832032 2.359375 17.601562.65625 35.507812-4.980469 52.34375-2.980469-43.347656-23.835937-58.554688-25.089844-59.476563-8.347656-6.015625-19.96875-4.289062-26.207031 3.898438zm0 0" fill="#e3e7f2"/><path d="m487.234375 106.65625c-1.621094 12.542969 5.203125 29.609375 4.265625 42.152344-1.28125 17.410156-11.691406 29.441406-22.101562 43.09375-15.273438 20.054687-30.804688 21.25-43.777344 15.703125-4.867188-2.082031-9.386719-4.902344-13.394532-8.363281-9.035156-7.941407-21.949218-9.691407-32.769531-4.4375-3.71875 1.898437-6.914062 4.683593-9.300781 8.105468l-.171875.257813c-.597656.851562-1.277344 1.535156-1.875 2.304687-7.507813 7.617188-19.46875 8.5625-28.074219 2.21875-.894531-.632812-1.75-1.316406-2.5625-2.050781-7.082031-6.65625-5.035156-12.882813-.851562-21.160156 8.1875-14.332031 20.746094-25.664063 35.839844-32.34375 3.035156-1.667969 5.199218-4.570313 5.9375-7.957031.734374-3.386719-.027344-6.925782-2.097657-9.707032-36.78125-54.269531-33.023437-99.328125-32-104.019531.625-3.335937 2.300781-6.386719 4.777344-8.703125 4.476563-4.503906 11.039063-6.234375 17.152344-4.523438 9.953125 2.445313 16.324219 12.167969 14.59375 22.269532-.40625 3.289062-.40625 6.613281 0 9.902344 1.109375 12.796874 6.996093 37.117187 31.65625 69.03125-19.710938-65.277344 4.523437-100.949219 5.71875-102.484376.585937-.824218 1.242187-1.59375 1.960937-2.304687 6.546875-6.265625 16.675782-6.84375 23.894532-1.363281 8.324218 5.839844 10.578124 17.191406 5.121093 25.769531-2.613281 4.710937-4.457031 9.8125-5.460937 15.105469-.257813 1.195312-.429688 2.386718-.683594 3.753906-2.363281 17.589844-.640625 35.492188 5.035156 52.308594 2.558594-36.777344 17.917969-53.246094 23.296875-58.027344.9375-.851562 1.621094-1.277344 1.789063-1.449219 8.101562-5.726562 19.238281-4.304687 25.636718 3.273438 6.402344 7.582031 5.941407 18.796875-1.058593 25.824219-6.605469 7.785156-10.316407 17.613281-10.496094 27.820312zm0 0" fill="#a4c2f7"/><path d="m461.632812 106.65625c-1.621093 12.542969 5.207032 29.609375 4.265626 42.152344-1.277344 17.410156-11.6875 29.441406-22.101563 43.09375-4.679687 6.644531-10.921875 12.035156-18.175781 15.703125-4.867188-2.082031-9.386719-4.902344-13.394532-8.363281-9.035156-7.941407-21.949218-9.691407-32.769531-4.4375-12.371093-5.886719-13.140625 7.253906-21.078125 18.515624l-13.992187-10.152343c-.597657.851562-1.28125 1.535156-1.878907 2.304687-.761718.804688-1.589843 1.546875-2.472656 2.21875-.894531-.632812-1.75-1.316406-2.5625-2.050781-7.082031-6.65625-5.035156-12.882813-.851562-21.160156 8.1875-14.332031 20.746094-25.664063 35.839844-32.34375 3.035156-1.667969 5.199218-4.570313 5.9375-7.957031.734374-3.386719-.027344-6.925782-2.097657-9.707032-36.78125-54.269531-33.023437-99.328125-32-104.019531.625-3.335937 2.300781-6.386719 4.777344-8.703125 4.863281 4.4375 36.183594-2.816406 34.902344 3.839844-.339844 1.960937-27.476563 21.757812 8.53125 68.265625-8.789063-29.011719-14.503907-27.5625-11.6875-44.457031 1.109375 12.796874 6.996093 37.117187 31.65625 69.03125-19.710938-65.277344 4.523437-100.949219 5.71875-102.484376.597656-.851562 24.832031-6.742187 25.515625-7.421874 6.910156 6.398437 3.855468 21.929687-1.265625 29.523437-3.183594 5.859375-5.265625 12.25-6.144531 18.859375-2.359376 17.589844-.636719 35.492188 5.035156 52.308594 2.21875-32.851563-4.113282-49.492188 2.375-56.0625-.257813 1.195312-.429688 2.386718-.683594 3.753906-2.363281 17.589844-.640625 35.492188 5.035156 52.308594 2.558594-36.777344 17.917969-53.246094 23.296875-58.027344.878907.742188 1.679688 1.570312 2.386719 2.476562 6.019531 7.558594 5.316406 18.449219-1.621094 25.171876-6.605468 7.785156-10.3125 17.613281-10.496094 27.820312zm0 0" fill="#e3e7f2"/><path d="m315.714844 366.835938c9.472656-.496094 17.828125-6.363282 21.511718-15.101563l20.394532-47.277344c1.265625-2.761719.941406-5.992187-.84375-8.449219-1.785156-2.457031-4.757813-3.761718-7.777344-3.410156-30.828125 4.152344-61.910156 6.175782-93.019531 6.058594-31.109375.136719-62.1875-1.890625-93.015625-6.078125-3.039063-.351563-6.03125.960937-7.828125 3.4375s-2.117188 5.730469-.839844 8.511719l20.410156 47.214844c3.871094 9.148437 12.8125 15.117187 22.742188 15.179687zm0 0" fill="#7fabfa"/><path d="m315.714844 366.921875v76.800781c0 18.851563-15.285156 34.132813-34.136719 34.132813-4.300781.019531-8.566406-.820313-12.542969-2.476563-4.332031-1.703125-8.277344-4.253906-11.605468-7.507812-6.378907-6.417969-9.96875-15.097656-9.984376-24.148438v-59.734375c.097657-4.554687-1.667968-8.953125-4.890624-12.171875-3.222657-3.222656-7.621094-4.992187-12.175782-4.894531h-34.132812c0-18.851563 15.28125-34.132813 34.132812-34.132813h51.199219c18.851563 0 34.136719 15.28125 34.136719 34.132813zm0 0" fill="#a4c2f7"/><path d="m290.539062 366.921875v76.800781c.042969 13.976563-8.496093 26.542969-21.503906 31.65625-4.332031-1.703125-8.277344-4.253906-11.605468-7.507812-6.378907-6.417969-9.96875-15.097656-9.984376-24.148438v-59.734375c.097657-4.554687-1.667968-8.953125-4.890624-12.171875-3.222657-3.222656-7.621094-4.992187-12.175782-4.894531h-34.132812c0-18.851563 15.28125-34.132813 34.132812-34.132813h26.027344c18.851562 0 34.132812 15.28125 34.132812 34.132813zm0 0" fill="#e3e7f2"/><path d="m72.855469 210.414062c-12.207031 54.613282.097656 111.839844 33.675781 156.609376 33.578125 44.773437 85.066406 72.609374 140.914062 76.1875v.511718c.015626 9.050782 3.605469 17.730469 9.984376 24.148438 3.328124 3.253906 7.273437 5.804687 11.605468 7.507812 3.976563 1.65625 8.242188 2.496094 12.542969 2.476563 4.425781-.003907 8.804687-.875 12.894531-2.558594-4.265625-1.699219-8.152344-4.222656-11.441406-7.425781-6.378906-6.417969-9.96875-15.097656-9.984375-24.148438v-.511718c-55.851563-3.578126-107.335937-31.414063-140.914063-76.1875-33.578124-44.769532-45.882812-101.996094-33.679687-156.609376-12.476563-.984374-23.742187-7.859374-30.316406-18.511718-10.386719-13.636719-20.796875-25.648438-22.078125-43.074219-.9375-12.578125 5.898437-29.601563 4.269531-42.199219-.1875-10.191406-3.886719-20.003906-10.472656-27.785156-6.960938-6.722656-7.664063-17.640625-1.628907-25.207031.714844-.882813 1.503907-1.703125 2.363282-2.449219-.921875-.851562-1.578125-1.3125-1.757813-1.449219-8.347656-6.015625-19.96875-4.289062-26.207031 3.898438-6.035156 7.566406-5.328125 18.484375 1.632812 25.207031 6.589844 7.789062 10.289063 17.613281 10.46875 27.8125 1.613282 12.59375-5.222656 29.617188-4.265624 42.195312 1.296874 17.425782 11.707031 29.441407 22.09375 43.078126 6.578124 10.636718 17.832031 17.5 30.300781 18.484374zm0 0" fill="#fff"/><path d="m246.875 451.726562c-19.273438-1.53125-38.265625-5.570312-56.492188-12.023437-18.050781-6.925781-35.082031-16.265625-50.625-27.757813-24.773437-18.734374-44.925781-42.890624-58.90625-70.625-13.726562-27.882812-20.953124-58.519531-21.136718-89.597656h17.066406c.203125 28.417969 6.828125 56.417969 19.371094 81.917969 12.796875 25.378906 31.234375 47.496094 53.894531 64.648437 14.226563 10.507813 29.796875 19.046876 46.300781 25.398438 16.679688 5.878906 34.046875 9.574219 51.671875 10.996094zm0 0" fill="#fff"/><g fill="#428dff"><path d="m506.007812 48.328125c-9.128906-11.820313-26.023437-14.207031-38.066406-5.375-7.324218 6-13.226562 13.550781-17.273437 22.109375.1875-2.558594.46875-4.835938.800781-6.824219.667969-5.367187 2.289062-10.566406 4.789062-15.359375 5.824219-9.296875 5.679688-21.140625-.371093-30.289062-6.054688-9.148438-16.894531-13.917969-27.730469-12.191406-6.808594 1.097656-12.890625 4.894531-16.871094 10.53125-.851562 1.210937-16.375 23.398437-14.898437 64.21875-5.148438-10.570313-7.617188-22.246094-7.183594-33.996094 2.695313-14.53125-6.40625-28.648438-20.753906-32.195313-7.074219-1.902343-14.621094-.792969-20.847657 3.0625-6.023437 3.730469-10.246093 9.78125-11.664062 16.726563-1.535156 12.78125-.800781 25.730468 2.167969 38.253906-53.066407-22.492188-113.269531-20.9375-165.105469 4.269531 3.683594-13.878906 4.730469-28.328125 3.089844-42.589843-1.433594-6.929688-5.664063-12.953126-11.691406-16.660157-6.214844-3.859375-13.753907-4.972656-20.820313-3.070312-14.226563 3.457031-23.34375 17.347656-20.855469 31.777343.546875 11.878907-1.894531 23.707032-7.097656 34.398438 1.457031-40.808594-14.023438-62.960938-14.839844-64.085938-3.984375-5.71875-10.117187-9.574218-17-10.683593-10.820312-1.726563-21.652344 3.019531-27.710937 12.148437-6.0625 9.125-6.238281 20.953125-.449219 30.253906 2.542969 4.835938 4.1875 10.089844 4.855469 15.511719.324219 1.980469.605469 4.269531.792969 6.828125-4.039063-8.554687-9.929688-16.105468-17.246094-22.101562-12.039063-8.832032-28.925782-6.46875-38.074219 5.332031-8.667969 10.851563-7.777344 26.488281 2.066406 36.285156 5.378907 6.488281 8.304688 14.664063 8.269531 23.089844.238282 6.558594-.433593 13.121094-2 19.492187-1.71875 7.296876-2.511718 14.777344-2.363281 22.273438 1.382813 18.429688 11.410157 31.46875 21.113281 44.082031l2.703126 3.53125c6.5625 9.496094 16.015624 16.621094 26.949218 20.320313-1.984375 11.332031-2.980468 22.816406-2.976562 34.320312.179687 31.078125 7.40625 61.714844 21.136718 89.597656 13.96875 27.746094 34.113282 51.917969 58.878907 70.667969 2.332031 1.839844 4.765625 3.550781 7.289062 5.117188 1.875 1.332031 4.210938 1.839843 6.46875 1.398437 2.257813-.4375 4.238281-1.78125 5.476563-3.71875 2.460937-3.90625 1.460937-9.058594-2.289063-11.757812-2.3125-1.429688-4.539062-2.996094-6.671875-4.6875-22.664062-17.167969-41.097656-39.300782-53.886718-64.699219-12.53125-25.5-19.140626-53.503906-19.335938-81.917969.011719-11.199218 1.0625-22.371094 3.140625-33.375 9.382813-1.871094 18.105469-6.195312 25.273437-12.535156 4.820313-4.085938 11.109376-6.007812 17.390626-5.324219 4.957031.605469 9.425781 3.289063 12.289062 7.382813.121094.175781.324219.417968.511719.648437.726562.964844 1.503906 1.894531 2.328125 2.78125 5.554687 5.84375 13.273437 9.136719 21.335937 9.09375 4.167969-.027343 8.285157-.898437 12.109375-2.558593 12.929688 5.714843 24.53125 14.058593 34.0625 24.5-16.210937-3.34375-39.183594-4.941407-56.402344 6.535156-3.921874 2.617187-4.980468 7.914062-2.367187 11.835937 2.617187 3.921875 7.917969 4.980469 11.835937 2.363281 21.515626-14.328124 60.007813.683594 60.382813.855469 2.976563 1.183594 6.363281.601563 8.773437-1.503906 2.414063-2.109375 3.441407-5.390625 2.660157-8.5-5.816407-23.199219-27.570313-38.96875-45.011719-48.195313 3.683594-8.203124 2.847656-17.730468-2.203125-25.171874-9.058594-15.875-22.902344-28.484376-39.550781-36.027344-.691406-.328125-1.191406-.960938-1.355469-1.707032-.277344-1.238281-.007813-2.53125.734375-3.558593 9.519531-13.960938 17.328125-29.011719 23.261719-44.835938 54.269531-32.648437 121.574219-34.882812 177.894531-5.902343 6.085938 17.976562 14.605469 35.039062 25.316406 50.710937.742188 1.027344 1.011719 2.324219.734375 3.558594-.164062.753906-.667969 1.382812-1.367187 1.707031-16.632813 7.554688-30.460938 20.167969-39.515625 36.035156-5.039063 7.4375-5.871094 16.953125-2.195313 25.148438-17.449218 9.21875-39.25 24.996094-45.046875 48.207031-.777343 3.105469.25 6.386719 2.660157 8.496094 2.410156 2.109375 5.800781 2.6875 8.777343 1.503906.382813-.144531 38.867188-15.15625 60.378907-.851563 2.539062 1.691407 5.785156 1.902344 8.519531.550782 2.730469-1.351563 4.539062-4.058594 4.734375-7.101563.195312-3.042969-1.246094-5.957031-3.78125-7.652343-17.210938-11.476563-40.175782-9.871094-56.414063-6.535157 9.554688-10.457031 21.179688-18.808593 34.132813-24.53125 3.824218 1.660157 7.941406 2.53125 12.109375 2.558594 8.097656.046875 15.851562-3.261719 21.417969-9.140625.757812-.804688 1.457031-1.660156 2.101562-2.558594.25-.269531.484375-.554687.699219-.855468 2.863281-4.089844 7.328125-6.773438 12.289062-7.378907 6.261719-.691406 12.535157 1.222657 17.347657 5.289063 9.230468 8.546875 21.390624 13.230468 33.96875 13.082031 16.042968 87.492187-33.09375 173.863281-116.496094 204.785156v-49.648437c9.359375-2.894532 16.972656-9.761719 20.8125-18.773438l20.386718-47.25c2.492188-5.726562 1.6875-12.355468-2.097656-17.320312-3.59375-4.84375-9.570312-7.304688-15.53125-6.394532-30.441406 4.085938-61.125 6.078126-91.835937 5.957032-30.695313.15625-61.367188-1.839844-91.785157-5.972656-5.988281-.859376-11.96875 1.601562-15.617187 6.425781-3.78125 4.96875-4.585937 11.59375-2.105469 17.324219l20.410156 47.230468c4.875 11.371094 15.628907 19.117188 27.957032 20.148438.320312.085937.644531.152344.972656.195312h34.464844c2.335937-.25 4.664062.5625 6.335937 2.210938 1.675781 1.652344 2.519531 3.964844 2.300781 6.304687v49.671875l-7.117187-.808594c-5.367187-.855468-10.640625-2.195312-15.976563-3.253906-4.445312-.976562-8.902343 1.621094-10.238281 5.976563-.664062 2.21875-.382812 4.617187.785157 6.621093 1.164062 2.003907 3.109374 3.4375 5.367187 3.957032 5.820313 1.1875 11.605469 2.628906 17.46875 3.558594l10.453125 1.1875c3.765625 21.78125 23.5625 37.0625 45.585938 35.195312 22.023437-1.867188 38.960937-20.269531 39.003906-42.371094v-2.125c95.027344-31.800781 151.855468-129.015625 132.933594-227.421875 7.488281-4.273437 13.980468-10.089843 19.046874-17.066406l2.695313-3.523437c9.703125-12.613282 19.730469-25.652344 21.113281-44.085938.15625-7.484375-.625-14.960938-2.332031-22.253906-1.566406-6.375-2.238281-12.9375-1.996094-19.5-.027343-8.410156 2.898438-16.5625 8.269531-23.039063 9.878907-9.816406 10.753907-25.503906 2.03125-36.359375zm-377.386718 81.367187c-3.480469 5.078126-4.625 11.398438-3.140625 17.375 1.375 5.496094 5.066406 10.125 10.121093 12.6875 13.519532 5.789063 24.789063 15.828126 32.09375 28.59375 4.15625 8.117188 3.285157 8.9375.972657 11.09375-5.066407 5.125-13.3125 5.222657-18.5.222657-.445313-.476563-.859375-.984375-1.246094-1.507813-.101563-.136718-.257813-.324218-.417969-.523437-5.613281-7.730469-14.167968-12.808594-23.648437-14.027344-10.988281-1.320313-22.035157 1.964844-30.523438 9.070313-6.21875 6.109374-14.667969 9.410156-23.378906 9.140624-8.945313-1.875-16.746094-7.304687-21.609375-15.046874l-2.753906-3.601563c-8.945313-11.664063-16.640625-21.628906-17.597656-34.976563.003906-6.003906.703124-11.984374 2.082031-17.824218 1.980469-8.117188 2.707031-16.488282 2.160156-24.824219-.359375-11.960937-4.828125-23.433594-12.65625-32.488281-3.980469-3.691406-4.507813-9.800782-1.21875-14.121094 3.371094-4.585938 9.792969-5.625 14.4375-2.339844 1.945313 1.460938 19.046875 15.359375 21.648437 53.214844.273438 4.121094 3.457032 7.453125 7.5625 7.914062 4.101563.464844 7.949219-2.078124 9.128907-6.035156 6.007812-18.078125 7.792969-37.292968 5.222656-56.167968-.96875-7.855469-3.535156-15.425782-7.535156-22.253907-2.878907-4.777343-1.507813-10.972656 3.125-14.082031 2.292969-1.71875 5.183593-2.4375 8.011719-1.988281 2.390624.375 4.519531 1.707031 5.898437 3.695312.230469.324219 23.039063 33.589844 4.488281 95.105469-1.179687 3.9375.613282 8.152344 4.265625 10.035156 3.65625 1.882813 8.128907.890625 10.648438-2.355468 36.609375-47.351563 34.210937-79.359376 33.28125-85.777344-.886719-5.660156 2.710937-11.058594 8.277343-12.417969 2.5625-.699219 5.300782-.320313 7.578126 1.050781 2.019531 1.257813 3.441406 3.285156 3.933593 5.617188.078125.382812 6.101563 43.195312-30.710937 97.542968zm53.914062 218.667969-20.78125-47.308593c31.226563 4.238281 62.714844 6.289062 94.226563 6.132812 31.371093.125 62.714843-1.917969 93.804687-6.117188l-20.417968 47.265626c-1.390626 3.191406-3.753907 5.867187-6.75 7.636718-4.929688-18.636718-21.757813-31.644531-41.039063-31.71875h-51.199219c-19.3125.03125-36.210937 13.007813-41.222656 31.660156-2.933594-1.785156-5.246094-4.429687-6.621094-7.578124zm124.644532 95.359375c0 14.136719-11.460938 25.597656-25.601563 25.597656-14.136719 0-25.597656-11.460937-25.597656-25.597656v-59.734375c.199219-6.847656-2.433594-13.476562-7.277344-18.320312-4.84375-4.847657-11.472656-7.480469-18.324219-7.277344h-24.148437c3.632812-10.226563 13.300781-17.058594 24.148437-17.070313h51.199219c14.140625 0 25.601563 11.464844 25.601563 25.601563zm184.242187-370.664062c-7.824219 9.050781-12.292969 20.519531-12.652344 32.480468-.550781 8.335938.179688 16.710938 2.15625 24.832032 1.378907 5.839844 2.078125 11.820312 2.082031 17.824218-.996093 13.347657-8.695312 23.347657-17.609374 34.988282l-2.75 3.589844c-4.863282 7.746093-12.664063 13.179687-21.613282 15.054687-8.738281.289063-17.207031-3.027344-23.425781-9.171875-8.476563-7.09375-19.507813-10.367188-30.480469-9.039062-9.382812 1.152343-17.867187 6.140624-23.433594 13.78125-.226562.242187-.4375.5-.628906.769531-.375.507812-.773437.996093-1.203125 1.457031-5.167969 5.070312-13.464843 5.015625-18.5625-.128906-2.320312-2.191406-3.191406-3.011719.957031-11.089844 7.304688-12.773438 18.570313-22.820312 32.09375-28.613281 5.058594-2.558594 8.753907-7.191407 10.128907-12.691407 1.484375-5.972656.339843-12.296874-3.140625-17.371093-10.519532-15.273438-18.734375-32.011719-24.386719-49.671875v-.0625c-5.320313-15.320313-7.46875-31.566406-6.316406-47.742188.488281-2.351562 1.914062-4.402344 3.953125-5.675781 1.484375-.910156 3.195312-1.390625 4.9375-1.382813 3.296875.019532 6.414062 1.5 8.511718 4.046876 2.09375 2.546874 2.945313 5.890624 2.328126 9.128906-.855469 5.972656-3.253907 38 33.355468 85.332031 2.519532 3.25 6.996094 4.238281 10.648438 2.359375 3.652344-1.882812 5.449218-6.101562 4.269531-10.039062-18.527344-61.515626 4.265625-94.777344 4.554687-95.195313 1.375-1.941406 3.476563-3.242187 5.828126-3.601563 2.839843-.445312 5.742187.277344 8.039062 2.003907 4.59375 3.097656 5.972656 9.242187 3.140625 14.003906-4.007813 6.832031-6.570313 14.410156-7.527344 22.273437-2.578125 18.890626-.796875 38.121094 5.214844 56.214844 1.179687 3.957032 5.027344 6.5 9.128906 6.039063 4.105469-.460938 7.289063-3.792969 7.5625-7.914063 2.558594-37.878906 19.703125-51.753906 21.777344-53.308594 4.644531-3.1875 10.980469-2.109374 14.308594 2.433594 3.261719 4.320313 2.722656 10.40625-1.246094 14.085938zm0 0"/><path d="m281.578125 383.988281c-4.710937 0-8.53125 3.820313-8.53125 8.535157v34.132812c0 4.710938 3.820313 8.53125 8.53125 8.53125 4.714844 0 8.535156-3.820312 8.535156-8.53125v-34.132812c0-4.714844-3.820312-8.535157-8.535156-8.535157zm0 0"/><path d="m178.0625 434.496094c2.160156.894531 4.570312.957031 6.773438.179687l1.453124-.777343c.484376-.308594.925782-.683594 1.304688-1.117188.410156-.351562.761719-.765625 1.042969-1.226562.292969-.476563.554687-.972657.785156-1.484376.78125-2.117187.78125-4.445312 0-6.5625-1.738281-4.203124-6.496094-6.273437-10.753906-4.675781-1.027344.390625-1.972657.96875-2.789063 1.703125-.839844.71875-1.535156 1.585938-2.050781 2.5625-.996094 2.066406-1.167969 4.433594-.476563 6.621094.835938 2.179688 2.542969 3.914062 4.710938 4.777344zm0 0"/><path d="m238.65625 194.191406c-4.34375-21.8125-19.21875-40.050781-39.714844-48.691406-4.476562-1.488281-9.3125.933594-10.800781 5.410156-1.488281 4.476563.933594 9.3125 5.410156 10.800782 14.917969 6.832031 25.574219 20.507812 28.550781 36.644531.960938 3.785156 4.371094 6.4375 8.277344 6.433593.699219 0 1.394532-.085937 2.074219-.257812 4.566406-1.144531 7.34375-5.773438 6.203125-10.339844zm0 0"/><path d="m281.578125 204.789062c3.914063-.003906 7.324219-2.671874 8.269531-6.46875 2.992188-16.160156 13.667969-29.851562 28.613282-36.691406 4.308593-1.617187 6.5625-6.359375 5.089843-10.71875-1.472656-4.363281-6.136719-6.769531-10.542969-5.445312-20.492187 8.640625-35.367187 26.878906-39.714843 48.691406-1.136719 4.570312 1.644531 9.199219 6.214843 10.34375.675782.179688 1.371094.277344 2.070313.289062zm0 0"/></g></svg>